<?xml version="1.0" encoding="utf-8"?>
<!-- Generator: Adobe Illustrator 26.0.1, SVG Export Plug-In . SVG Version: 6.00 Build 0)  -->
<svg version="1.1" id="Layer_1" xmlns="http://www.w3.org/2000/svg" xmlns:xlink="http://www.w3.org/1999/xlink" x="0px" y="0px"
	 width="209.85" height="41.77" viewBox="0 0 209.85 41.77" style="enable-background:new 0 0 209.85 41.77;" xml:space="preserve">
<g>
	<path d="M17.76,23.74c2.85,0,9.56-3.43,9.56-11.66c0-5.81-0.71-10.62-7.22-11.51v-0.4c-1.56-0.21-3.13-0.21-4.69,0v0.4
		C8.91,1.45,8.2,6.27,8.2,12.07C8.2,20.3,14.91,23.74,17.76,23.74z M20.11,1.97c0.41,0.06,0.79,0.14,1.13,0.23l-0.56,5h-0.57
		L20.11,1.97L20.11,1.97z M15.42,1.97V7.2h-0.57l-0.56-5C14.63,2.11,15,2.03,15.42,1.97z M9.63,10.01l0.09-0.05l0.05,0.25
		c0.2,1.04,0.69,2.53,1.17,2.59c2.78,0.33,4.82,0.48,6.82,0.48s4.03-0.14,6.82-0.48c0.49-0.06,0.98-1.55,1.17-2.59l0.05-0.25
		l0.09,0.05c0.03,0.68,0.04,1.38,0.04,2.07c0,4.02-1.78,6.51-3.27,7.9c-1.88,1.74-3.96,2.37-4.9,2.37s-3.03-0.63-4.9-2.37
		c-1.49-1.38-3.27-3.87-3.27-7.9C9.59,11.38,9.6,10.69,9.63,10.01z"/>
	<path d="M35.52,35.7c-0.49-3.04-1.49-6.95-3.51-8.34c-1.38-0.95-6.18-3.52-8.23-4.61l-0.04-0.02c-0.23-0.13-0.52-0.1-0.73,0.06
		c-1.07,0.84-2.25,1.41-3.5,1.69c-0.22,0.05-0.4,0.21-0.48,0.42l-1.27,3.35l-1.27-3.35c-0.08-0.21-0.26-0.37-0.48-0.42
		c-1.25-0.28-2.42-0.85-3.5-1.69c-0.21-0.16-0.5-0.19-0.73-0.06c-2.03,1.08-6.89,3.7-8.26,4.63c-2.32,1.56-3.34,7.22-3.52,8.34
		c-0.02,0.11-0.01,0.22,0.03,0.33c0.08,0.23,2.21,5.74,17.72,5.74s17.64-5.51,17.72-5.74C35.52,35.92,35.53,35.81,35.52,35.7z
		 M27.56,39.68c-2.37,0.6-5.55,1.03-9.8,1.03c-4.25,0-7.43-0.42-9.8-1.03C8.69,33.49,8,28.12,7.63,25.92
		C8,25.71,8.38,25.51,8.75,25.3c1.39,3.68,1.64,8.34,1.64,8.34h6.74h1.26h6.74c0,0,0.25-4.67,1.64-8.35
		c0.37,0.2,0.75,0.41,1.12,0.62C27.53,28.1,26.84,33.48,27.56,39.68z"/>
</g>
<g>
	<path d="M51.26,33.35c-1.28,0-2.46-0.33-3.53-0.98c-1.07-0.66-1.92-1.53-2.56-2.63s-0.96-2.3-0.96-3.61v-1.65
		c0-0.13,0.06-0.19,0.18-0.19h4.04c0.09,0,0.14,0.06,0.14,0.19v1.65c0,0.79,0.26,1.46,0.79,2.03s1.16,0.85,1.9,0.85
		c0.75,0,1.39-0.29,1.92-0.87s0.79-1.25,0.79-2.01c0-0.88-0.57-1.65-1.72-2.3c-0.19-0.12-0.43-0.26-0.73-0.43s-0.65-0.37-1.06-0.59
		s-0.81-0.44-1.2-0.66s-0.76-0.42-1.12-0.62c-1.31-0.77-2.29-1.74-2.93-2.91s-0.96-2.48-0.96-3.93c0-1.34,0.33-2.54,0.98-3.62
		c0.66-1.07,1.51-1.91,2.58-2.54s2.21-0.94,3.45-0.94c1.28,0,2.45,0.32,3.52,0.95c1.07,0.64,1.92,1.5,2.56,2.57s0.96,2.26,0.96,3.59
		v2.95c0,0.09-0.05,0.14-0.14,0.14h-4.04c-0.09,0-0.14-0.05-0.14-0.14l-0.04-2.95c0-0.84-0.26-1.53-0.79-2.06s-1.15-0.79-1.88-0.79
		c-0.74,0-1.37,0.28-1.9,0.84s-0.79,1.23-0.79,2c0,0.79,0.17,1.44,0.5,1.97s0.95,1.03,1.84,1.51c0.09,0.05,0.31,0.16,0.65,0.35
		s0.72,0.4,1.13,0.62s0.79,0.43,1.13,0.62s0.54,0.29,0.62,0.33c1.2,0.67,2.14,1.49,2.84,2.46s1.05,2.17,1.05,3.59
		c0,1.37-0.32,2.6-0.95,3.69c-0.64,1.09-1.5,1.95-2.57,2.58S52.56,33.35,51.26,33.35z"/>
	<path d="M66.14,33.3c-1.06,0-2.05-0.27-2.94-0.82c-0.89-0.55-1.6-1.28-2.15-2.19s-0.81-1.92-0.81-3.01l0.03-9.51
		c0-1.11,0.27-2.11,0.81-3c0.53-0.9,1.24-1.62,2.14-2.16c0.9-0.54,1.88-0.81,2.93-0.81c1.09,0,2.08,0.27,2.94,0.81
		c0.88,0.54,1.58,1.26,2.12,2.16s0.8,1.91,0.8,3.01l0.03,9.51c0,1.09-0.26,2.09-0.79,3c-0.54,0.92-1.25,1.65-2.14,2.2
		S67.22,33.3,66.14,33.3z M66.14,29.68c0.61,0,1.13-0.25,1.58-0.74s0.67-1.05,0.67-1.66l-0.03-9.51c0-0.66-0.21-1.23-0.63-1.68
		s-0.95-0.69-1.6-0.69c-0.62,0-1.14,0.22-1.58,0.67s-0.66,1.02-0.66,1.7v9.51c0,0.65,0.22,1.22,0.66,1.69S65.53,29.68,66.14,29.68z"
		/>
	<path d="M72.67,32.86l3.72-20.61c0.02-0.08,0.07-0.12,0.15-0.12h4.35c0.08,0,0.13,0.04,0.15,0.12l3.57,20.61
		c0.01,0.1-0.03,0.15-0.12,0.15h-3.33c-0.1,0-0.15-0.05-0.16-0.15l-0.32-2.2H76.6l-0.32,2.2c-0.01,0.1-0.06,0.15-0.15,0.15h-3.34
		C72.71,33,72.67,32.95,72.67,32.86z M78.55,19.03l-1.35,8.42h2.89l-1.23-8.42l-0.18-1.11L78.55,19.03z"/>
	<path d="M92.01,32.83L96.47,8.1c0.02-0.09,0.08-0.14,0.18-0.14h5.22c0.09,0,0.15,0.05,0.18,0.14l4.29,24.73
		c0.01,0.12-0.04,0.18-0.14,0.18h-3.99c-0.12,0-0.18-0.06-0.19-0.18l-0.39-2.64h-4.9l-0.39,2.64C96.32,32.94,96.26,33,96.15,33
		h-4.01C92.05,33,92.01,32.94,92.01,32.83z M99.05,16.23l-1.62,10.11h3.46l-1.48-10.11l-0.21-1.34L99.05,16.23z"/>
	<path d="M111.86,33h-3.4c-0.08,0-0.12-0.05-0.12-0.15l0.06-20.61c0-0.08,0.04-0.12,0.12-0.12h6.06c1.08,0,2.08,0.26,2.99,0.79
		s1.63,1.24,2.18,2.12s0.81,1.89,0.81,3.02c0,0.73-0.11,1.4-0.34,1.99s-0.49,1.1-0.78,1.51s-0.57,0.71-0.81,0.91
		c1.08,1.2,1.63,2.61,1.63,4.23l0.03,6.15c0,0.1-0.05,0.15-0.15,0.15h-3.4c-0.08,0-0.12-0.03-0.12-0.09V26.7
		c0-0.72-0.25-1.35-0.76-1.88s-1.13-0.79-1.88-0.79h-1.98l-0.03,8.82C111.98,32.95,111.94,33,111.86,33z M114.58,15.72h-2.58v4.72
		h2.58c0.62,0,1.16-0.23,1.65-0.69s0.73-1.02,0.73-1.68c0-0.63-0.23-1.18-0.7-1.65C115.79,15.95,115.23,15.72,114.58,15.72z"/>
	<path d="M128.6,33h-3.38c-0.09,0-0.13-0.05-0.13-0.15V15.75h-3.9c-0.1,0-0.15-0.05-0.15-0.15l0.03-3.35c0-0.08,0.04-0.12,0.12-0.12
		h11.4c0.11,0,0.16,0.04,0.16,0.12v3.35c0,0.1-0.04,0.15-0.12,0.15h-3.94l0.03,17.11C128.72,32.95,128.68,33,128.6,33z"/>
	<path d="M150.38,33h-6.45c-0.09,0-0.14-0.06-0.14-0.18l0.07-24.73c0-0.09,0.05-0.14,0.14-0.14h6.93c1.35,0,2.57,0.33,3.67,0.98
		c1.08,0.66,1.93,1.53,2.55,2.61s0.93,2.26,0.93,3.52c0,1.03-0.23,1.99-0.7,2.88s-1.03,1.61-1.67,2.16
		c0.69,0.69,1.23,1.49,1.62,2.41s0.58,1.88,0.58,2.88c0,1.39-0.33,2.67-1,3.81c-0.68,1.15-1.59,2.07-2.72,2.75S151.77,33,150.38,33z
		 M150.38,22.25h-2.2l-0.04,6.36h2.23c0.87,0,1.61-0.32,2.23-0.95s0.93-1.38,0.93-2.25s-0.31-1.61-0.93-2.23
		S151.25,22.25,150.38,22.25z M150.93,12.23h-2.74v5.66h2.74c0.83,0,1.51-0.3,2.02-0.89s0.77-1.23,0.77-1.92
		c0-0.76-0.28-1.43-0.83-2S151.69,12.23,150.93,12.23z"/>
	<path d="M170.06,33h-9.7c-0.08,0-0.12-0.05-0.12-0.15l0.03-20.61c0-0.08,0.04-0.12,0.12-0.12h9.64c0.08,0,0.12,0.05,0.12,0.15v3.35
		c0,0.08-0.04,0.12-0.12,0.12h-6.15v4.69h6.15c0.08,0,0.12,0.04,0.12,0.12l0.03,3.4c0,0.08-0.04,0.12-0.12,0.12h-6.18v5.24h6.18
		c0.08,0,0.12,0.05,0.12,0.15v3.43C170.18,32.96,170.14,33,170.06,33z"/>
	<path d="M179.25,33h-3.38c-0.09,0-0.13-0.05-0.13-0.15V15.75h-3.9c-0.1,0-0.15-0.05-0.15-0.15l0.03-3.35
		c0-0.08,0.04-0.12,0.12-0.12h11.4c0.11,0,0.16,0.04,0.16,0.12v3.35c0,0.1-0.04,0.15-0.12,0.15h-3.94l0.03,17.11
		C179.37,32.95,179.33,33,179.25,33z"/>
	<path d="M190.4,33.3c-1.06,0-2.05-0.27-2.94-0.82c-0.89-0.55-1.6-1.28-2.15-2.19c-0.54-0.91-0.81-1.92-0.81-3.01l0.03-9.51
		c0-1.11,0.27-2.11,0.81-3c0.53-0.9,1.24-1.62,2.14-2.16c0.9-0.54,1.88-0.81,2.93-0.81c1.09,0,2.08,0.27,2.94,0.81
		c0.88,0.54,1.58,1.26,2.12,2.16s0.8,1.91,0.8,3.01l0.03,9.51c0,1.09-0.26,2.09-0.79,3c-0.54,0.92-1.25,1.65-2.14,2.2
		S191.48,33.3,190.4,33.3z M190.4,29.68c0.61,0,1.13-0.25,1.58-0.74s0.67-1.05,0.67-1.66l-0.03-9.51c0-0.66-0.21-1.23-0.63-1.68
		s-0.95-0.69-1.6-0.69c-0.62,0-1.14,0.22-1.58,0.67s-0.66,1.02-0.66,1.7v9.51c0,0.65,0.22,1.22,0.66,1.69S189.78,29.68,190.4,29.68z
		"/>
	<path d="M201.81,33h-3c-0.16,0-0.23-0.07-0.23-0.21l-0.03-20.43c0-0.16,0.08-0.23,0.23-0.23h2.71l5.07,11.82l-0.15-11.59
		c0-0.16,0.09-0.23,0.26-0.23h2.97c0.12,0,0.18,0.08,0.18,0.23l0.03,20.46c0,0.12-0.05,0.18-0.15,0.18h-2.64l-5.2-11.04l0.22,10.81
		C202.09,32.93,201.99,33,201.81,33z"/>
</g>
</svg>
